<?xml version="1.0" encoding="utf-8"?>
<!-- Generator: Adobe Illustrator 22.0.0, SVG Export Plug-In . SVG Version: 6.00 Build 0)  -->
<svg version="1.1" id="Layer_1" xmlns="http://www.w3.org/2000/svg" xmlns:xlink="http://www.w3.org/1999/xlink" x="0px" y="0px"
	 viewBox="0 0 121.6 69" style="enable-background:new 0 0 121.6 69;" xml:space="preserve">
<style type="text/css">
	.st0{clip-path:url(#SVGID_2_);fill:#0482C2;}
	.st1{fill:#0482C2;}
</style>
<g>
	<g>
		<g>
			<defs>
				<rect id="SVGID_1_" x="5.2" y="17.9" width="110.7" height="33"/>
			</defs>
			<clipPath id="SVGID_2_">
				<use xlink:href="#SVGID_1_"  style="overflow:visible;"/>
			</clipPath>
			<path class="st0" d="M109.6,51H11.5c-5,0-6.3-4.1-6.3-6.3V24.3c0-5,4.1-6.3,6.3-6.3h98.1c5,0,6.3,4.1,6.3,6.3v20.4
				C115.9,49.6,111.8,51,109.6,51 M11.5,19.5c-0.2,0-4.8,0.1-4.8,4.8v20.4c0,0.2,0.1,4.8,4.8,4.8h98.1c0.2,0,4.8-0.1,4.8-4.8V24.3
				c0-0.2-0.1-4.8-4.8-4.8H11.5L11.5,19.5z"/>
		</g>
	</g>
	<path class="st1" d="M22.2,25c5.4,0,9.7,4,9.7,9.6c0,5.7-4.3,9.6-9.7,9.6s-9.7-4-9.7-9.6S16.8,25,22.2,25 M22.2,29.2
		c-2.8,0-4.9,2.2-4.9,5.4c0,3.3,2.1,5.4,4.9,5.4c2.9,0,4.9-2.2,4.9-5.4C27.1,31.4,25.1,29.2,22.2,29.2"/>
	<polygon class="st1" points="63.4,44 59.8,32.3 58.2,44 53.6,44 56.2,25.3 61.8,25.3 65.6,37.9 69.3,25.3 74.9,25.3 77.5,44 
		72.8,44 71.2,32.3 67.6,44 	"/>
	<polygon class="st1" points="41.4,32 38.8,33.2 38.8,32.6 38.8,25.3 34.1,25.3 34.1,44 38.8,44 38.8,37.8 42.1,36.3 42.9,33.4 	"/>
	<polygon class="st1" points="46.3,25.3 46.3,29.9 42.9,31.4 44.5,32.9 43.8,35.5 46.3,34.4 46.3,36.8 46.3,44 50.9,44 50.9,25.3 	
		"/>
	<polygon class="st1" points="91.3,34.3 97.9,44 92.6,44 88.7,38.1 84.8,44 79.5,44 86.1,34.3 80.1,25.3 85.4,25.3 88.8,30.6 
		92.2,25.3 97.4,25.3 	"/>
	<path class="st1" d="M100.7,43.9c-0.1-0.6-0.2-1.7-0.2-2.4c0-1.7,0.6-3.1,2.2-3.1c0.9,0,1.5,0.6,1.7,1.4c0.1-1,0.7-1.8,1.9-1.8
		c1.5,0,2.3,1.1,2.3,3.8c0,0.7-0.1,1.6-0.2,2.1H100.7L100.7,43.9z M103.8,42v-0.6c0-0.8-0.3-1.1-0.9-1.1c-0.5,0-0.7,0.4-0.7,1
		c0,0.2,0,0.6,0.1,0.7L103.8,42L103.8,42z M106.9,42c0-0.2,0-0.5,0-0.6c0-0.8-0.2-1.4-0.8-1.4c-0.6,0-0.8,0.4-0.8,1.1V42H106.9
		L106.9,42z"/>
	<path class="st1" d="M95.3,35.8c0-0.9,0.7-1.6,1.6-1.6c0.8,0,1.5,0.7,1.5,1.6s-0.7,1.5-1.5,1.5C96,37.3,95.3,36.6,95.3,35.8"/>
	<polygon class="st1" points="108.4,36.8 100.6,36.8 100.6,34.8 108.4,34.8 	"/>
	<path class="st1" d="M100.5,29.5c0-2.3,1.7-4.1,4-4.1c2.4,0,4,1.8,4,4.1c0,2.3-1.7,4.1-4,4.1C102.2,33.5,100.5,31.7,100.5,29.5
		 M102.3,29.5c0,1.2,0.9,2,2.3,2s2.3-0.9,2.3-2c0-1.2-0.9-2-2.3-2C103.2,27.4,102.3,28.3,102.3,29.5"/>
</g>
</svg>
